<!DOCTYPE svg PUBLIC "-//W3C//DTD SVG 1.1//EN" "http://www.w3.org/Graphics/SVG/1.1/DTD/svg11.dtd">
<!-- Uploaded to: SVG Repo, www.svgrepo.com, Transformed by: SVG Repo Mixer Tools -->
<svg width="64px" height="64px" viewBox="-6.56 -6.56 29.12 29.12" xmlns="http://www.w3.org/2000/svg" fill="#ce1212" class="bi bi-inboxes">
<g id="SVGRepo_bgCarrier" stroke-width="0" transform="translate(0,0), scale(1)">
<rect x="-6.56" y="-6.56" width="29.12" height="29.12" rx="14.56" fill="#fae7e7" strokewidth="0"/>
</g>
<g id="SVGRepo_tracerCarrier" stroke-linecap="round" stroke-linejoin="round" stroke="#CCCCCC" stroke-width="0.16"/>
<g id="SVGRepo_iconCarrier"> <path d="M4.98 1a.5.5 0 0 0-.39.188L1.54 5H6a.5.5 0 0 1 .5.5 1.5 1.5 0 0 0 3 0A.5.5 0 0 1 10 5h4.46l-3.05-3.812A.5.5 0 0 0 11.02 1H4.98zm9.954 5H10.45a2.5 2.5 0 0 1-4.9 0H1.066l.32 2.562A.5.5 0 0 0 1.884 9h12.234a.5.5 0 0 0 .496-.438L14.933 6zM3.809.563A1.5 1.5 0 0 1 4.981 0h6.038a1.5 1.5 0 0 1 1.172.563l3.7 4.625a.5.5 0 0 1 .105.374l-.39 3.124A1.5 1.5 0 0 1 14.117 10H1.883A1.5 1.5 0 0 1 .394 8.686l-.39-3.124a.5.5 0 0 1 .106-.374L3.81.563zM.125 11.17A.5.5 0 0 1 .5 11H6a.5.5 0 0 1 .5.5 1.5 1.5 0 0 0 3 0 .5.5 0 0 1 .5-.5h5.5a.5.5 0 0 1 .496.562l-.39 3.124A1.5 1.5 0 0 1 14.117 16H1.883a1.5 1.5 0 0 1-1.489-1.314l-.39-3.124a.5.5 0 0 1 .121-.393zm.941.83.32 2.562a.5.5 0 0 0 .497.438h12.234a.5.5 0 0 0 .496-.438l.32-2.562H10.45a2.5 2.5 0 0 1-4.9 0H1.066z"/> </g>
</svg>